#N canvas 919 451 401 419 10;
#X obj 16 13 inlet;
#X obj 62 159 sin 0;
#X obj 16 158 cos 0;
#X obj 15 208 *;
#X obj 51 208 *;
#X obj 97 96 unpack f f f f f;
#X obj 15 275 pack f f f f f;
#X obj 86 210 *, f 1;
#X obj 120 210 *;
#X obj 46 243 +;
#X obj 15 241 -;
#X obj 16 54 * 0.0174533;
#X obj 109 15 inlet;
#X obj 15 319 outlet;
#X floatatom 16 93 5 0 0 0 - - -, f 5;
#X obj 109 54 trigger bang list;
#X obj 158 160 sin 0;
#X obj 112 159 cos 0;
#X obj 16 123 trigger f f f f;
#X text 15 388 sending a number (in degrees) to the left inlet will
rotate the point about the origin;
#X text 15 347 send a single helios point (a list of 5 numbers) to
the right inlet- it will be copied to the outlet;
#X connect 0 0 11 0;
#X connect 1 0 4 0;
#X connect 2 0 3 0;
#X connect 3 0 10 0;
#X connect 4 0 9 0;
#X connect 5 0 3 1;
#X connect 5 0 4 1;
#X connect 5 1 8 1;
#X connect 5 1 7 1;
#X connect 5 2 6 2;
#X connect 5 3 6 3;
#X connect 5 4 6 4;
#X connect 6 0 13 0;
#X connect 7 0 9 1;
#X connect 8 0 10 1;
#X connect 9 0 6 1;
#X connect 10 0 6 0;
#X connect 11 0 14 0;
#X connect 12 0 15 0;
#X connect 14 0 18 0;
#X connect 15 0 14 0;
#X connect 15 1 5 0;
#X connect 16 0 8 0;
#X connect 17 0 7 0;
#X connect 18 0 2 0;
#X connect 18 1 16 0;
#X connect 18 2 1 0;
#X connect 18 3 17 0;
