#N canvas 221 633 568 294 10;
#X obj 28 24 tgl 15 0 empty empty empty 17 7 0 10 -262144 -1 -1 0 1
;
#X obj 55 104 red_square;
#X floatatom 55 77 5 0 0 0 - - -, f 5;
#X floatatom 25 247 5 0 0 0 - - -, f 5;
#X obj 55 50 loadbang;
#X obj 25 217 helios 20000;
#X msg 70 160 intensity \$1;
#X floatatom 70 132 5 0 0 0 - - -, f 5;
#N canvas 921 539 532 304 settings 0;
#X obj 18 291 s settings;
#X floatatom 49 163 5 0 0 0 - - -, f 5;
#X text 101 163 <---------;
#X floatatom 38 90 5 0 0 0 - - -, f 5;
#X text 101 90 <---------;
#X floatatom 21 21 5 0 0 0 - - -, f 5;
#X text 101 21 <---------;
#X msg 21 49 maxangle \$1;
#X text 172 21 set the max angle for a corner before inserting points
- default 15 degrees;
#X msg 38 118 subdivide \$1;
#X text 172 90 set the subdivision length for straight lines - default
15;
#X msg 49 191 blanknum \$1;
#X text 172 163 set the number of dwell points to insert at corners
- default 8;
#X text 150 240 pd_helios processes drawing shapes and adds extra points
for the laser to be able to keep within it's mechanical limits. Generally
\, increasing these makes better drawings \, but slows the laser down.
If you reduce them to the point the laser makes a noise \, you're doing
it wrong :-);
#X connect 1 0 11 0;
#X connect 3 0 9 0;
#X connect 5 0 7 0;
#X connect 7 0 0 0;
#X connect 9 0 0 0;
#X connect 11 0 0 0;
#X restore 470 22 pd settings;
#X obj 111 189 r settings;
#X text 181 211 [optional] initialise helios with points per second
for your laser - max 40k;
#X text 110 217 <---------;
#X text 109 246 <---------;
#X text 181 248 helios prints the number of points output \, negative
number for an error;
#X text 183 132 set the intensity [output power] from 0 to 255;
#X text 112 132 <---------;
#X text 111 78 <---------;
#X text 182 78 turn the red square!;
#X text 111 26 <---------;
#X text 182 26 activate the laser;
#X text 23 277 pd_helios v0.1;
#X connect 0 0 5 0;
#X connect 1 0 5 0;
#X connect 2 0 1 0;
#X connect 4 0 2 0;
#X connect 5 0 3 0;
#X connect 6 0 5 0;
#X connect 7 0 6 0;
#X connect 9 0 5 0;
