#N canvas 550 549 556 434 10;
#X msg 140 143 -100 100 255 0 0;
#X obj 17 172 helios_point_rotation;
#X obj 16 268 list append;
#X obj 255 141 helios_point_rotation;
#X msg 376 107 100 100 255 0 0;
#X obj 52 210 helios_point_rotation;
#X obj 248 210 helios_point_rotation;
#X obj 15 318 list append;
#X obj 102 267 list append;
#X obj 141 11 loadbang;
#X text 16 420 A red square that can be rotated;
#X obj 17 12 inlet;
#X msg 319 286 -100 100 255 0 0;
#X obj 195 319 helios_point_rotation;
#X obj 17 64 trigger f f f f f;
#X obj 142 64 trigger b b b b b;
#X msg 176 177 100 -100 255 0 0;
#X msg 371 178 -100 -100 255 0 0;
#X obj 15 356 list append;
#X obj 15 389 outlet;
#X connect 0 0 1 1;
#X connect 1 0 2 0;
#X connect 2 0 7 0;
#X connect 3 0 2 1;
#X connect 4 0 3 1;
#X connect 5 0 8 0;
#X connect 6 0 8 1;
#X connect 7 0 18 0;
#X connect 8 0 7 1;
#X connect 9 0 15 0;
#X connect 11 0 14 0;
#X connect 12 0 13 1;
#X connect 13 0 18 1;
#X connect 14 0 1 0;
#X connect 14 1 3 0;
#X connect 14 2 5 0;
#X connect 14 3 6 0;
#X connect 14 4 13 0;
#X connect 15 0 0 0;
#X connect 15 1 4 0;
#X connect 15 2 16 0;
#X connect 15 3 17 0;
#X connect 15 4 12 0;
#X connect 16 0 5 1;
#X connect 17 0 6 1;
#X connect 18 0 19 0;
